<?xml version="1.0" standalone="no"?>
<!DOCTYPE svg PUBLIC "-//W3C//DTD SVG 20010904//EN"
 "http://www.w3.org/TR/2001/REC-SVG-20010904/DTD/svg10.dtd">
<svg version="1.0" xmlns="http://www.w3.org/2000/svg"
 width="90.000000pt" height="90.000000pt" viewBox="0 0 90.000000 90.000000"
 preserveAspectRatio="xMidYMid meet">
<metadata>
Created by potrace 1.11, written by Peter Selinger 2001-2013
</metadata>
<g transform="translate(0.000000,90.000000) scale(0.100000,-0.100000)"
fill="#000000" stroke="none">
<path d="M0 445 l0 -375 110 0 110 0 1 43 c2 135 1 258 -5 344 l-6 98 51 -180
c28 -99 58 -207 68 -240 l16 -60 95 -3 95 -3 59 218 c48 178 104 361 80 263
-3 -14 -8 -127 -11 -253 l-5 -227 121 0 121 0 0 375 0 375 -164 0 c-148 0
-165 -2 -169 -17 -3 -10 -24 -90 -47 -178 -23 -88 -46 -178 -52 -200 l-11 -40
-27 100 c-15 55 -40 147 -55 205 -15 58 -29 111 -31 118 -2 9 -46 12 -174 12
l-170 0 0 -375z"/>
</g>
</svg>
