<svg width="30" height="25" viewBox="0 0 30 25" version="1.1" xmlns="http://www.w3.org/2000/svg" xmlns:xlink="http://www.w3.org/1999/xlink">
<title>m-white</title>
<desc>Created using Figma</desc>
<g id="Canvas" transform="translate(686 485)">
<g id="m-white">
<use xlink:href="#path0_fill" transform="translate(-686 -485)" fill="#FFFFFF"/>
</g>
</g>
<defs>
<path id="path0_fill" d="M 30 0L 19.0456 0L 15.2934 14.4041L 15.1512 14.4041L 11.3634 0L 0 0L 0 24.9635L 7.39775 24.9635L 7.39775 15.9632C 7.39775 15.0183 7.36218 14.0793 7.29105 13.1461C 7.21992 12.2012 7.14286 11.3567 7.05987 10.6126C 6.96503 9.73854 6.85833 8.89993 6.73977 8.09675L 6.88204 8.09675L 11.5412 24.9635L 17.8364 24.9635L 22.46 8.06132L 22.62 8.06132C 22.5015 8.86449 22.4007 9.70901 22.3177 10.5949C 22.2466 11.3508 22.1814 12.2012 22.1221 13.1461C 22.0628 14.0793 22.0332 15.0183 22.0332 15.9632L 22.0332 24.9635L 30 24.9635L 30 0Z"/>
</defs>
</svg>
