<svg width="18" height="18" viewBox="0 0 18 18" xmlns="http://www.w3.org/2000/svg" xmlns:xlink="http://www.w3.org/1999/xlink"><title>visit-site</title><desc>Created using Figma</desc><use xlink:href="#a" fill="#FFF"/><defs><path id="a" d="M16.322 11.937v2.497A3.574 3.574 0 0 1 12.757 18H3.566A3.574 3.574 0 0 1 0 14.434v-9.19a3.574 3.574 0 0 1 3.566-3.566h2.498a.63.63 0 0 1 0 1.258H3.566a2.323 2.323 0 0 0-2.308 2.307v9.191a2.322 2.322 0 0 0 2.308 2.307h9.19a2.323 2.323 0 0 0 2.308-2.307v-2.497a.63.63 0 0 1 1.258 0zM18 .629l-.184-.445L17.37 0h-5.06a.63.63 0 1 0 0 1.258h3.54L9.627 7.484a.63.63 0 0 0 .89.89l6.225-6.226V5.69a.63.63 0 0 0 1.259 0V.63z"/></defs></svg>